<?xml version="1.0" encoding="UTF-8" standalone="no"?>
<!-- Created with Inkscape (http://www.inkscape.org/) -->

<svg
   xmlns:dc="http://purl.org/dc/elements/1.1/"
   xmlns:cc="http://creativecommons.org/ns#"
   xmlns:rdf="http://www.w3.org/1999/02/22-rdf-syntax-ns#"
   xmlns:svg="http://www.w3.org/2000/svg"
   xmlns="http://www.w3.org/2000/svg"
   xmlns:sodipodi="http://sodipodi.sourceforge.net/DTD/sodipodi-0.dtd"
   xmlns:inkscape="http://www.inkscape.org/namespaces/inkscape"
   id="svg2"
   version="1.1"
   inkscape:version="0.91 r13725"
   xml:space="preserve"
   width="481.82755"
   height="202.01544"
   viewBox="0 0 481.82755 202.01544"
   sodipodi:docname="logo_master.svg"><metadata
     id="metadata8"><rdf:RDF><cc:Work
         rdf:about=""><dc:format>image/svg+xml</dc:format><dc:type
           rdf:resource="http://purl.org/dc/dcmitype/StillImage" /><dc:title></dc:title></cc:Work></rdf:RDF></metadata><defs
     id="defs6" /><sodipodi:namedview
     pagecolor="#ffffff"
     bordercolor="#666666"
     borderopacity="1"
     objecttolerance="10"
     gridtolerance="10"
     guidetolerance="10"
     inkscape:pageopacity="0"
     inkscape:pageshadow="2"
     inkscape:window-width="2048"
     inkscape:window-height="1128"
     id="namedview4"
     showgrid="false"
     inkscape:zoom="1.1674932"
     inkscape:cx="35.271463"
     inkscape:cy="-64.427159"
     inkscape:window-x="0"
     inkscape:window-y="24"
     inkscape:window-maximized="1"
     inkscape:current-layer="g10"
     fit-margin-top="2"
     fit-margin-left="2"
     fit-margin-right="2"
     fit-margin-bottom="2" /><g
     id="g10"
     inkscape:groupmode="layer"
     inkscape:label="ink_ext_XXXXXX"
     transform="matrix(1.25,0,0,-1.25,-409.28496,659.49359)"><path
       inkscape:connector-curvature="0"
       id="path18"
       style="fill:none;stroke:#51ade5;stroke-width:3.21530008;stroke-linecap:round;stroke-linejoin:round;stroke-miterlimit:10;stroke-dasharray:none;stroke-opacity:1"
       d="m 335.949,402.356 c 0,0 36.112,-22.298 101.131,14.959 69.403,39.769 125.405,55.104 180.226,35.88" /><path
       inkscape:connector-curvature="0"
       id="path20"
       style="fill:none;stroke:#51ade5;stroke-width:3.21530008;stroke-linecap:butt;stroke-linejoin:miter;stroke-miterlimit:10;stroke-dasharray:none;stroke-opacity:1"
       d="m 338.206,372.072 c 31.527,-7.827 59.87,0.792 85.273,19.154 27.35,19.77 47.743,47.394 74.639,67.7 27.36,20.656 60.509,32.527 94.928,31.799 10.688,-0.227 21.843,-1.345 32.072,-4.662" /><path
       inkscape:connector-curvature="0"
       id="path22"
       style="fill:none;stroke:#2e3192;stroke-width:3.21530008;stroke-linecap:round;stroke-linejoin:round;stroke-miterlimit:10;stroke-dasharray:none;stroke-opacity:1"
       d="m 337.348,372.322 c 31.527,-7.828 60.728,4.104 86.131,22.466 32.214,23.285 55.352,58.062 90.016,77.921 6.696,3.835 13.633,7.253 20.79,10.139 49.837,20.095 90.833,3.215 90.833,3.215" /><path
       inkscape:connector-curvature="0"
       id="path24"
       style="fill:#51ade5;fill-opacity:1;fill-rule:nonzero;stroke:none"
       d="m 484.969,383.259 c 0.95,4.371 1.584,8.743 2.027,13.114 l 2.534,0 c 0,-0.063 0,-0.127 0,-0.127 0,-6.905 4.181,-11.276 9.503,-11.276 4.118,0 6.779,2.597 6.779,6.526 0,2.723 -1.204,5.384 -3.547,7.602 l -4.562,4.182 c -4.118,3.864 -6.209,7.728 -6.209,11.593 0,6.715 5.258,11.784 12.544,11.784 3.675,0 6.589,-1.077 9.06,-3.358 l 1.521,2.787 2.534,0 c -0.951,-3.737 -1.774,-7.919 -2.408,-12.48 l -2.407,0 c 0,0.254 0,0.507 0,0.761 0,6.018 -2.978,9.503 -7.476,9.503 -3.548,0 -6.082,-2.471 -6.082,-5.766 0,-2.598 1.457,-4.371 3.991,-6.715 l 5.322,-4.942 c 3.611,-3.358 5.512,-7.412 5.512,-11.531 0,-8.045 -4.942,-12.797 -13.368,-12.797 -4.498,0 -7.983,1.331 -11.277,4.372 l -1.394,-3.232 -2.597,0" /><path
       inkscape:connector-curvature="0"
       id="path26"
       style="fill:#51ade5;fill-opacity:1;fill-rule:nonzero;stroke:none"
       d="m 536.347,406.764 c 0,1.647 -1.077,2.787 -2.597,2.787 -3.295,0 -6.083,-4.434 -7.983,-13.178 6.969,2.789 10.58,6.589 10.58,10.391 z m 2.978,-16.093 c -3.611,-5.637 -7.666,-8.362 -12.734,-8.362 -5.829,0 -9.44,3.738 -9.44,10.073 0,4.878 2.027,9.757 5.765,13.812 3.358,3.674 7.413,5.638 11.467,5.638 4.752,0 7.603,-2.408 7.603,-5.892 0,-4.751 -5.639,-9.123 -16.599,-11.594 -0.19,-1.266 -0.317,-2.217 -0.317,-2.914 0,-3.675 1.394,-5.512 4.181,-5.512 2.788,0 5.512,2.028 8.427,6.146 l 1.647,-1.395" /><path
       inkscape:connector-curvature="0"
       id="path28"
       style="fill:#51ade5;fill-opacity:1;fill-rule:nonzero;stroke:none"
       d="m 553.326,386.173 c 2.407,0 4.308,1.838 6.209,5.512 2.28,4.372 3.421,9.693 3.421,12.481 0,2.535 -1.205,3.992 -3.105,3.992 -2.217,0 -4.434,-2.155 -6.589,-6.4 -2.154,-4.18 -3.104,-8.426 -3.104,-11.594 0,-2.534 1.393,-3.991 3.168,-3.991 z m -3.548,-3.801 c -4.245,0 -7.412,3.675 -7.412,9.124 0,4.561 1.583,9.566 4.498,13.43 3.421,4.625 7.412,6.969 11.277,6.969 3.358,0 5.765,-1.773 6.526,-4.751 l 1.139,3.928 6.843,0 -4.752,-16.535 c -0.95,-3.295 -1.33,-5.449 -1.33,-6.273 0,-1.014 0.507,-1.584 1.33,-1.584 1.395,0 2.598,1.964 4.561,5.575 l 1.521,-0.759 c -2.851,-6.209 -5.955,-9.25 -9.819,-9.25 -2.852,0 -4.245,1.266 -4.245,4.118 0,0.633 0.063,1.266 0.19,2.027 -2.979,-4.118 -6.209,-6.019 -10.327,-6.019" /><path
       inkscape:connector-curvature="0"
       id="path30"
       style="fill:#2e3192;fill-opacity:1;fill-rule:nonzero;stroke:none"
       d="m 599.917,386.239 c 7.412,0 10.643,5.765 10.643,17.802 0,12.988 -3.865,18.753 -14.191,18.753 -1.775,0 -2.408,-0.443 -2.408,-1.647 l 0,-28.446 c 0,-4.562 1.457,-6.462 5.956,-6.462 z m -21.858,-0.571 c 4.752,0.064 5.766,1.204 5.766,5.829 l 0,25.659 c 0,4.561 -0.698,6.018 -5.766,6.018 l 0,2.534 c 2.407,-0.127 4.941,-0.127 7.412,-0.127 3.548,0 7.096,0.127 10.518,0.127 16.915,0 25.721,-7.919 25.721,-22.491 0,-6.525 -2.154,-11.656 -6.461,-15.458 -4.499,-3.928 -9.757,-4.752 -17.043,-4.752 -3.739,0 -7.539,0.191 -11.467,0.191 -2.661,0 -5.512,-0.127 -8.68,-0.191 l 0,2.661" /><path
       inkscape:connector-curvature="0"
       id="path32"
       style="fill:#2e3192;fill-opacity:1;fill-rule:nonzero;stroke:none"
       d="m 621.519,385.605 c 4.815,0.57 5.766,2.598 5.766,7.666 l 0,26.673 -0.761,0.95 c -1.33,1.646 -2.725,2.217 -5.385,2.344 l 0,2.47 c 1.774,-0.19 3.801,-0.19 6.209,-0.19 2.027,0 4.498,0 7.222,0.19 l 25.278,-28.889 0,18.943 c 0,5.258 -1.457,7.412 -5.891,7.476 l 0,2.47 c 3.041,-0.127 5.448,-0.19 7.286,-0.19 1.646,0 4.18,0.063 7.792,0.19 l 0,-2.47 c -4.878,-0.317 -5.828,-2.471 -5.828,-7.793 l 0,-33.261 -3.548,0 -28.89,33.768 0,-22.681 c 0,-5.195 1.773,-7.603 5.828,-7.666 l 0,-2.598 c -4.244,0.191 -7.412,0.191 -9.503,0.191 -2.027,0 -3.864,-0.064 -5.575,-0.254 l 0,2.661" /><path
       inkscape:connector-curvature="0"
       id="path34"
       style="fill:#2e3192;fill-opacity:1;fill-rule:nonzero;stroke:none"
       d="m 691.206,399.416 -5.575,14.762 -6.082,-14.762 11.657,0 z m -25.342,-13.811 c 3.104,0.254 5.006,1.838 6.336,4.942 l 15.268,35.985 3.168,0 14.255,-35.859 c 1.33,-3.294 2.724,-4.814 6.399,-5.068 l 0,-2.598 c -3.675,0.127 -7.35,0.191 -10.961,0.191 -3.611,0 -7.222,-0.064 -10.897,-0.191 l 0,2.598 c 3.928,0.19 5.512,0.507 5.512,2.534 0,0.824 -0.38,2.534 -1.267,4.816 l -1.267,3.357 -14.192,0 -1.077,-2.471 c -0.95,-2.218 -1.266,-4.054 -1.266,-4.752 0,-2.407 1.647,-3.484 5.194,-3.484 l 0,-2.598 c -2.66,0.127 -5.258,0.191 -7.792,0.191 -2.471,0 -4.942,-0.064 -7.413,-0.191 l 0,2.598" /><path
       inkscape:connector-curvature="0"
       id="path36"
       style="fill:#2e3192;fill-opacity:1;fill-rule:nonzero;stroke:none"
       d="m 633.385,483.21 c 0,-0.918 -0.744,-1.663 -1.662,-1.663 -0.918,0 -1.662,0.745 -1.662,1.663 0,0.918 0.744,1.662 1.662,1.662 0.918,0 1.662,-0.744 1.662,-1.662" /><path
       inkscape:connector-curvature="0"
       id="path38"
       style="fill:#51ade5;fill-opacity:1;fill-rule:nonzero;stroke:none"
       d="m 623.649,450.755 c 0,-0.918 -0.744,-1.662 -1.662,-1.662 -0.918,0 -1.663,0.744 -1.663,1.662 0,0.918 0.745,1.662 1.663,1.662 0.918,0 1.662,-0.744 1.662,-1.662" /><path
       inkscape:connector-curvature="0"
       id="path40"
       style="fill:#2e3192;fill-opacity:1;fill-rule:nonzero;stroke:none"
       d="m 333.044,374.159 c 0,-0.918 -0.744,-1.663 -1.662,-1.663 -0.918,0 -1.663,0.745 -1.663,1.663 0,0.918 0.745,1.662 1.663,1.662 0.918,0 1.662,-0.744 1.662,-1.662" /><path
       inkscape:connector-curvature="0"
       id="path42"
       style="fill:#51ade5;fill-opacity:1;fill-rule:nonzero;stroke:none"
       d="m 332.351,406.429 c -0.032,-0.918 -0.802,-1.635 -1.719,-1.603 -0.918,0.032 -1.635,0.802 -1.603,1.72 0.032,0.917 0.802,1.635 1.72,1.602 0.917,-0.032 1.635,-0.802 1.602,-1.719" /><path
       inkscape:connector-curvature="0"
       id="path44"
       style="fill:#2e3192;fill-opacity:1;fill-rule:nonzero;stroke:none"
       d="m 479.52,454.622 c -0.639,0.412 -1.528,0.819 -2.414,1.489 -0.88,0.691 -1.892,1.486 -3.026,2.377 -1.078,0.963 -2.194,2.124 -3.49,3.35 -0.573,0.684 -1.169,1.396 -1.787,2.134 -0.62,0.744 -1.31,1.493 -1.842,2.398 -0.58,0.88 -1.18,1.787 -1.797,2.721 -0.572,0.969 -1.098,2.01 -1.681,3.061 -0.605,1.041 -1.117,2.173 -1.611,3.351 -0.49,1.178 -1.064,2.36 -1.468,3.648 -0.432,1.277 -0.929,2.566 -1.34,3.919 -0.387,1.367 -0.781,2.759 -1.181,4.175 -0.662,2.88 -1.287,5.889 -1.759,9.034 -1.01,6.276 -1.462,13.05 -1.657,20.062 -0.065,1.748 -0.082,3.536 -0.106,5.332 l -0.012,1.35 c -0.015,0.288 0.037,0.273 -0.04,0.957 -0.093,0.544 -0.388,1.065 -0.802,1.415 -0.411,0.358 -0.933,0.571 -1.483,0.596 -0.275,0.017 -0.549,-0.023 -0.816,-0.099 -0.14,-0.042 -0.385,-0.15 -0.423,-0.176 l -0.229,-0.136 -1.11,-0.715 c -3.007,-1.848 -6.385,-3.619 -9.428,-5.809 -1.56,-1.046 -3.114,-2.11 -4.714,-3.118 -1.488,-1.166 -2.98,-2.335 -4.474,-3.507 -3.097,-2.229 -5.708,-5.024 -8.547,-7.58 -1.457,-1.247 -2.639,-2.751 -3.957,-4.13 -1.269,-1.421 -2.615,-2.783 -3.819,-4.253 -1.167,-1.5 -2.332,-2.997 -3.493,-4.49 l -1.723,-2.251 -1.574,-2.338 c -1.047,-1.558 -2.09,-3.109 -3.127,-4.652 -1.01,-1.561 -1.923,-3.166 -2.867,-4.741 -1.896,-3.151 -3.548,-6.371 -5.192,-9.53 -3.268,-6.325 -6.124,-12.566 -8.792,-18.493 -2.593,-5.945 -5.045,-11.565 -7.309,-16.754 -2.264,-5.175 -4.328,-9.922 -6.257,-14.073 -1.866,-4.194 -3.67,-7.716 -5.086,-10.671 -1.455,-2.936 -2.737,-5.209 -3.545,-6.775 -0.607,-1.143 -1.001,-1.886 -1.172,-2.207 0.937,-0.127 1.994,-0.237 3.21,-0.309 0.17,0.316 0.362,0.676 0.592,1.104 0.818,1.572 2.094,3.812 3.58,6.782 1.449,2.989 3.308,6.593 5.193,10.79 1.96,4.176 4.048,8.93 6.336,14.109 2.279,5.171 4.747,10.774 7.358,16.699 2.674,5.884 5.532,12.069 8.782,18.3 1.633,3.111 3.275,6.284 5.148,9.369 0.923,1.55 1.797,3.145 2.773,4.684 1.001,1.522 2.007,3.051 3.017,4.586 l 1.517,2.309 1.661,2.213 c 1.111,1.476 2.226,2.956 3.342,4.439 1.144,1.46 2.425,2.809 3.632,4.222 1.254,1.369 2.377,2.87 3.768,4.107 2.7,2.552 5.247,5.28 8.23,7.481 1.444,1.155 2.885,2.308 4.321,3.458 1.539,1.008 3.074,2.013 4.602,3.014 1.537,0.981 3.023,2.061 4.612,2.893 1.586,0.877 3.223,1.722 4.838,2.666 l 0.494,0.298 -0.028,-0.944 c -0.056,-1.794 -0.116,-3.572 -0.13,-5.358 -0.234,-14.2 0.712,-27.647 3.971,-38.742 1.639,-5.518 3.584,-10.491 5.981,-14.566 0.519,-1.06 1.176,-1.998 1.784,-2.919 0.61,-0.919 1.199,-1.805 1.764,-2.656 1.303,-1.577 2.453,-3.069 3.581,-4.336 1.205,-1.198 2.281,-2.267 3.216,-3.198 0.954,-0.911 1.883,-1.552 2.576,-2.139 0.145,-0.117 0.253,-0.203 0.385,-0.308 2.243,2.05 4.513,4.065 6.827,6.022 -0.292,0.174 -0.881,0.523 -1.783,1.059" /></g></svg>